<?xml version="1.0" encoding="UTF-8"?>
<svg xmlns="http://www.w3.org/2000/svg" xmlns:xlink="http://www.w3.org/1999/xlink" width="595pt" height="841pt" viewBox="0 0 595 841" version="1.1">
<g id="surface1">
<path style=" stroke:none;fill-rule:evenodd;fill:rgb(16.235352%,24.081421%,60.897827%);fill-opacity:1;" d="M 243.980469 655.953125 C 248.8125 667.578125 250.472656 684.339844 242.46875 695.058594 C 237.789063 699.890625 232.652344 703.664063 225.859375 703.058594 C 218.765625 702.15625 211.515625 700.042969 207.742188 692.945313 C 202.304688 681.921875 202.304688 666.972656 207.742188 655.953125 C 212.875 647.796875 222.386719 644.476563 231.597656 646.589844 C 236.730469 647.34375 240.960938 651.722656 243.980469 655.953125 M 492.507813 714.6875 L 476.503906 715.441406 L 476.503906 634.207031 L 492.507813 634.207031 Z M 399.046875 665.3125 L 400.402344 666.820313 L 430.902344 634.207031 L 451.894531 634.207031 L 420.03125 666.066406 L 420.03125 668.332031 L 454.007813 714.6875 C 448.421875 716.046875 440.566406 715.140625 433.773438 715.441406 L 407.652344 679.203125 C 391.800781 685.847656 401.914063 703.363281 399.046875 715.441406 L 383.796875 715.441406 L 383.039063 634.207031 L 399.046875 634.207031 Z M 114.882813 634.207031 C 115.183594 644.777344 114.277344 655.953125 115.636719 666.066406 C 127.113281 656.554688 136.472656 644.777344 146.742188 634.207031 L 167.878906 634.207031 L 135.265625 666.820313 C 146.742188 682.828125 158.367188 698.679688 169.992188 714.6875 C 164.257813 716.046875 156.402344 715.140625 149.761719 715.441406 L 123.640625 679.203125 C 107.636719 685.847656 117.75 703.363281 114.882813 715.441406 L 99.027344 715.441406 L 99.027344 634.207031 Z M 348.3125 643.570313 C 350.273438 647.949219 352.992188 651.875 351.9375 657.460938 C 346.351563 655.648438 335.023438 661.6875 335.175781 652.328125 C 332.761719 648.097656 328.382813 645.230469 323.699219 645.082031 C 316 644.175781 308.601563 645.53125 304.828125 652.328125 C 303.167969 657.761719 306.941406 662.292969 311.320313 663.953125 C 326.117188 669.089844 345.746094 666.820313 354.050781 682.828125 C 355.5625 692.339844 355.5625 703.058594 347.558594 709.554688 C 336.386719 717.40625 320.378906 719.820313 306.941406 715.441406 C 298.484375 713.480469 290.785156 705.628906 288.824219 697.324219 L 288.066406 691.433594 C 293.957031 692.039063 308.148438 685.847656 306.1875 697.929688 C 311.925781 706.230469 323.097656 703.515625 331.554688 703.058594 C 334.421875 702.003906 336.535156 699.4375 338.800781 697.324219 C 338.648438 694.757813 340.613281 692.1875 338.800781 690.074219 C 330.195313 680.261719 315.246094 682.375 304.074219 676.9375 C 298.9375 676.183594 294.710938 671.804688 291.691406 667.578125 C 287.765625 659.273438 289.425781 647.949219 294.710938 640.703125 C 303.621094 629.375 319.324219 632.09375 332.308594 632.699219 C 338.347656 634.8125 344.539063 637.53125 348.3125 643.570313 M 254.851563 642.964844 C 267.683594 658.667969 267.53125 685.246094 257.71875 702.304688 C 249.566406 713.179688 237.335938 717.101563 224.351563 717.554688 C 212.875 716.347656 202.003906 712.574219 194.605469 703.058594 C 184.339844 688.265625 184.941406 665.3125 192.492188 649.460938 C 202.003906 634.660156 218.914063 628.773438 236.730469 632.699219 C 243.527344 634.058594 249.265625 638.433594 254.851563 642.964844 M 476.503906 608.84375 L 491.753906 608.84375 L 491.753906 624.09375 L 476.503906 624.09375 Z M 545.355469 577.738281 L 547.621094 581.359375 L 547.621094 737.183594 L 45.277344 737.789063 L 44.671875 591.476563 C 48.597656 588.609375 53.277344 585.4375 58.410156 587.851563 C 73.8125 592.835938 92.988281 602.046875 109.144531 592.230469 C 128.472656 576.527344 144.929688 600.234375 165.613281 594.347656 C 173.617188 591.628906 181.316406 588.304688 189.621094 586.34375 C 197.324219 583.777344 199.890625 594.042969 207.742188 591.476563 C 219.667969 599.78125 232.652344 589.0625 244.582031 586.34375 C 257.265625 585.136719 268.742188 590.722656 280.820313 592.835938 C 292.445313 597.214844 303.46875 591.476563 314.1875 589.210938 C 324.152344 584.382813 335.933594 584.230469 346.050781 579.851563 C 359.484375 580.90625 373.226563 593.890625 385.152344 580.605469 C 395.875 575.773438 408.40625 577.132813 419.277344 580.605469 C 427.734375 582.566406 435.28125 588.761719 444.644531 586.34375 C 454.007813 582.265625 464.121094 579.699219 474.390625 577.738281 C 482.542969 577.738281 488.433594 583.171875 496.132813 584.230469 C 511.53125 593.890625 526.027344 579.851563 540.371094 576.226563 C 541.582031 577.738281 544.148438 576.078125 545.355469 577.738281 M 75.777344 544.367188 C 85.4375 546.78125 95.101563 549.199219 104.765625 545.121094 C 109.144531 543.308594 113.976563 542.855469 117.75 539.988281 C 139.039063 539.082031 157.460938 544.671875 178.75 543.613281 C 192.492188 555.84375 207.4375 565.054688 222.839844 573.359375 L 222.839844 574.71875 C 207.742188 574.113281 193.09375 561.730469 178.75 570.488281 L 177.996094 569.734375 C 165.011719 577.285156 148.101563 577.285156 135.265625 569.734375 C 119.863281 561.277344 105.371094 572.300781 91.78125 576.980469 C 76.53125 572.453125 62.640625 564.753906 44.671875 566.863281 L 44.671875 532.742188 C 53.882813 539.386719 65.660156 539.6875 75.777344 544.367188 M 482.394531 536.363281 C 496.28125 541.046875 509.269531 534.855469 519.988281 527.605469 L 546.863281 527.605469 L 547.621094 559.617188 C 534.332031 561.882813 522.855469 562.183594 510.628906 566.863281 C 486.46875 559.011719 455.214844 553.277344 431.660156 566.109375 C 419.429688 568.222656 410.671875 555.691406 399.046875 563.242188 C 392.703125 562.789063 387.421875 566.863281 381.53125 565.355469 C 391.195313 556.296875 402.671875 548.746094 412.785156 539.234375 C 426.527344 536.0625 439.359375 530.777344 454.007813 529.871094 C 461.101563 523.53125 466.839844 533.191406 474.390625 531.984375 Z M 523.613281 469.019531 C 531.765625 467.8125 538.710938 467.8125 546.863281 469.019531 C 547.921875 483.515625 547.921875 499.371094 546.863281 513.867188 C 533.878906 512.355469 519.988281 512.960938 509.117188 519 C 501.113281 519.757813 493.71875 523.679688 485.261719 521.113281 C 473.183594 513.113281 458.234375 509.636719 443.136719 513.867188 C 439.511719 516.132813 434.226563 514.621094 430.148438 516.132813 C 432.113281 508.429688 437.550781 502.089844 441.019531 494.992188 C 443.4375 487.894531 445.25 480.496094 446.152344 472.644531 C 451.742188 465.699219 463.519531 470.835938 471.519531 468.265625 C 488.886719 470.683594 506.25 466.605469 523.613281 469.019531 M 138.890625 469.019531 C 141.304688 472.644531 139.492188 478.082031 143.117188 481.253906 C 144.929688 492.878906 153.839844 501.484375 157.007813 512.507813 C 158.820313 515.832031 163.804688 518.847656 162.746094 522.625 C 142.0625 510.847656 113.976563 515.832031 93.894531 525.492188 C 86.496094 521.113281 77.589844 520.511719 70.039063 516.734375 C 61.433594 516.28125 53.277344 514.773438 44.671875 514.621094 L 44.671875 469.019531 C 58.410156 472.496094 71.246094 465.097656 84.53125 469.625 C 103.105469 468.417969 119.863281 469.171875 138.890625 469.019531 M 269.34375 379.785156 L 269.949219 380.539063 L 314.1875 274.089844 C 341.820313 272.730469 370.207031 273.484375 398.289063 273.335938 L 349.671875 395.035156 C 346.804688 397.601563 346.050781 401.832031 347.558594 405.152344 L 404.027344 531.230469 L 317.058594 531.984375 L 314.945313 529.871094 L 270.703125 426.140625 L 269.949219 425.535156 L 269.34375 531.230469 L 187.355469 531.984375 L 186.601563 273.335938 L 268.589844 273.335938 Z M 330.195313 128.382813 C 425.167969 196.632813 486.621094 293.71875 481.636719 409.53125 C 492.960938 410.890625 505.34375 409.984375 517.121094 410.285156 L 517.875 158.730469 C 518.328125 157.375 517.269531 156.769531 516.363281 155.863281 L 378.058594 155.863281 C 369.148438 144.386719 357.371094 134.121094 346.050781 125.511719 L 546.863281 125.511719 L 547.621094 438.519531 C 514.703125 439.578125 480.429688 439.578125 447.515625 438.519531 C 462.914063 314.101563 396.78125 207.199219 293.957031 136.988281 C 191.132813 207.652344 124.546875 313.648438 139.492188 439.277344 L 44.671875 439.277344 L 44.671875 125.511719 L 240.355469 125.511719 C 227.21875 133.515625 214.988281 145.140625 204.117188 156.617188 L 72.90625 156.617188 L 72.152344 408.019531 L 72.152344 409.53125 C 81.664063 410.890625 91.933594 409.984375 101.898438 410.285156 C 96.460938 279.980469 181.015625 168.546875 291.089844 104.375 C 304.828125 110.414063 317.359375 119.773438 330.195313 128.382813 "/>
</g>
</svg>
